<?xml version="1.0" encoding="UTF-8" standalone="no"?>
<!-- Uploaded to: SVG Repo, www.svgrepo.com, Generator: SVG Repo Mixer Tools -->

<svg
   width="100%"
   height="100%"
   viewBox="0 0 250 250"
   fill="none"
   version="1.1"
   id="svg177"
   sodipodi:docname="appicon.svg"
   inkscape:version="1.2.2 (732a01da63, 2022-12-09)"
   xmlns:inkscape="http://www.inkscape.org/namespaces/inkscape"
   xmlns:sodipodi="http://sodipodi.sourceforge.net/DTD/sodipodi-0.dtd"
   xmlns="http://www.w3.org/2000/svg"
   xmlns:svg="http://www.w3.org/2000/svg">
  <defs
     id="defs181" />
  <sodipodi:namedview
     id="namedview179"
     pagecolor="#ffffff"
     bordercolor="#000000"
     borderopacity="0.25"
     inkscape:showpageshadow="2"
     inkscape:pageopacity="0.0"
     inkscape:pagecheckerboard="0"
     inkscape:deskcolor="#d1d1d1"
     showgrid="false"
     inkscape:zoom="2.5675"
     inkscape:cx="183.44693"
     inkscape:cy="172.34664"
     inkscape:window-width="1350"
     inkscape:window-height="1230"
     inkscape:window-x="964"
     inkscape:window-y="164"
     inkscape:window-maximized="0"
     inkscape:current-layer="svg177" />
  <path
     d="m 160.22612,147.3458 h 3.96734 z M 86.169201,131.37995 h 3.967336 c 0,-1.39328 -0.933912,-2.65475 -2.378921,-3.21233 z m 74.056919,0 -1.58852,-3.21233 c -1.44517,0.55758 -2.37881,1.81905 -2.37881,3.21233 z M 143.03433,95.933522 c 0,1.935952 1.77631,3.505383 3.96734,3.505383 2.19102,0 3.96733,-1.569431 3.96733,-3.505383 z m -47.608013,0 c 0,1.935952 1.776254,3.505383 3.967335,3.505383 2.191068,0 3.967328,-1.569431 3.967328,-3.505383 z M 133.77722,162.5358 c -2.19103,0 -3.96733,1.56947 -3.96733,3.50538 0,1.9359 1.7763,3.50538 3.96733,3.50538 z m -21.15912,7.01076 c 2.19102,0 3.96733,-1.56948 3.96733,-3.50538 0,-1.93591 -1.77631,-3.50538 -3.96733,-3.50538 z M 96.748761,83.080451 c -16.798437,0 -30.416236,12.032157 -30.416236,26.874599 h 7.93467 c 0,-10.97049 10.065341,-19.863833 22.481566,-19.863833 z m 52.897799,7.010766 c 12.41617,0 22.48156,8.893343 22.48156,19.863833 h 7.93467 c 0,-14.842442 -13.61801,-26.874599 -30.41623,-26.874599 z M 107.32832,162.5358 c -5.0994,0 -8.524849,-0.007 -11.080025,-0.31082 -2.441021,-0.29024 -3.485753,-0.79128 -4.175065,-1.40028 l -5.610658,4.95708 c 2.409337,2.12894 5.407584,2.99687 8.728455,3.39134 3.20677,0.38092 7.262183,0.37344 12.137293,0.37344 z m -25.126454,-15.19 c 0,4.30742 -0.0084,7.89085 0.422706,10.72414 0.446511,2.93424 1.428664,5.58337 3.838,7.71184 l 5.610658,-4.95708 c -0.689363,-0.609 -1.256534,-1.53209 -1.584712,-3.68906 -0.343571,-2.25747 -0.351981,-5.28425 -0.351981,-9.78984 z m 74.056924,0 c 0,4.50559 -0.008,7.53237 -0.35178,9.78984 -0.32849,2.15697 -0.89556,3.08006 -1.58481,3.68906 l 5.61033,4.95708 c 2.4095,-2.12847 3.39181,-4.7776 3.83827,-7.71184 0.43112,-2.83329 0.42266,-6.41672 0.42266,-10.72414 z M 139.067,169.54656 c 4.87506,0 8.93073,0.008 12.1374,-0.37344 3.32093,-0.39447 6.31917,-1.2624 8.72813,-3.39134 l -5.61033,-4.95708 c -0.68926,0.609 -1.73399,1.11004 -4.17523,1.40028 -2.55496,0.30334 -5.98062,0.31082 -11.07997,0.31082 z M 96.748761,90.091217 c 1.130427,0 2.238953,0.07343 3.320399,0.214669 l 1.1602,-6.935423 C 99.765047,83.179256 98.268727,83.080451 96.748761,83.080451 Z M 123.19766,69.05892 c -12.22209,0 -22.59043,6.973841 -26.305598,16.653466 l 7.514338,2.251577 c 2.65642,-6.921215 10.07159,-11.894278 18.79126,-11.894278 z M 96.892062,85.712386 c -0.951473,2.479007 -1.465745,5.132161 -1.465745,7.884214 h 7.934663 c 0,-1.976335 0.3687,-3.869382 1.04542,-5.632637 z m 52.754498,-2.631935 c -1.51975,0 -3.01624,0.0988 -4.48044,0.290012 l 1.16004,6.935423 c 1.08123,-0.141243 2.18997,-0.214669 3.3204,-0.214669 z m -26.4489,-7.010766 c 8.71967,0 16.13489,4.973063 18.79142,11.894278 l 7.51413,-2.251577 C 145.78819,76.032761 135.41969,69.05892 123.19766,69.05892 Z m 18.79142,11.894278 c 0.67656,1.763255 1.04525,3.656302 1.04525,5.632637 h 7.93467 c 0,-2.752053 -0.51416,-5.405207 -1.46579,-7.884214 z M 90.136537,147.3458 v -15.96585 h -7.934671 v 15.96585 z m -2.378921,-19.17818 c -7.948371,-3.06838 -13.490421,-10.0726 -13.490421,-18.21257 h -7.93467 c 0,11.0256 7.514133,20.49294 18.248261,24.63677 z m 68.501174,3.21233 v 15.96585 h 7.93467 v -15.96585 z m 15.86933,-21.4249 c 0,8.13997 -5.5421,15.14419 -13.49052,18.21257 l 3.17704,6.4242 c 10.73402,-4.14383 18.24815,-13.61117 18.24815,-24.63677 z M 143.03433,93.5966 v 2.336922 H 150.969 V 93.5966 Z m -47.608013,0 v 2.336922 h 7.934663 V 93.5966 Z M 139.067,162.5358 h -5.28978 v 7.01076 h 5.28978 z m -26.4489,0 h -5.28978 v 7.01076 h 5.28978 z"
     fill="#1C274C"
     id="path173"
     style="fill:#ffffff;fill-opacity:1;stroke:#ffffff;stroke-width:4.9723;stroke-opacity:1" />
  <path
     d="m 86.169201,147.3458 h 22.627069 19.69117 m 31.73868,0 h -10.57956"
     stroke="#1c274c"
     stroke-width="7.45839"
     stroke-linecap="round"
     stroke-linejoin="round"
     id="path175"
     style="fill:#ffffff;fill-opacity:1;stroke:#ffffff;stroke-opacity:1"
     sodipodi:nodetypes="ccccc" />
</svg>
